<svg width="30" height="30" viewBox="0 0 30 30" fill="none" xmlns="http://www.w3.org/2000/svg">
<path d="M15 8.8125C13.7762 8.8125 12.5799 9.17539 11.5624 9.85528C10.5449 10.5352 9.75181 11.5015 9.2835 12.6321C8.81518 13.7628 8.69265 15.0069 8.93139 16.2071C9.17014 17.4074 9.75944 18.5099 10.6248 19.3752C11.4901 20.2406 12.5926 20.8299 13.7929 21.0686C14.9931 21.3074 16.2372 21.1848 17.3679 20.7165C18.4985 20.2482 19.4648 19.4551 20.1447 18.4376C20.8246 17.4201 21.1875 16.2238 21.1875 15C21.1856 13.3595 20.5331 11.7868 19.3732 10.6268C18.2132 9.46685 16.6405 8.81436 15 8.8125ZM15 20.0625C13.9987 20.0625 13.0199 19.7656 12.1874 19.2093C11.3549 18.653 10.706 17.8624 10.3229 16.9373C9.93969 16.0123 9.83944 14.9944 10.0348 14.0124C10.2301 13.0303 10.7123 12.1283 11.4203 11.4203C12.1283 10.7123 13.0303 10.2301 14.0124 10.0348C14.9944 9.83944 16.0123 9.93969 16.9373 10.3229C17.8624 10.706 18.653 11.3549 19.2093 12.1874C19.7656 13.0199 20.0625 13.9987 20.0625 15C20.0625 16.3427 19.5291 17.6303 18.5797 18.5797C17.6303 19.5291 16.3427 20.0625 15 20.0625ZM21.75 0.9375H8.25C6.31129 0.939733 4.45262 1.71087 3.08175 3.08175C1.71087 4.45262 0.939733 6.31129 0.9375 8.25V21.75C0.939733 23.6887 1.71087 25.5474 3.08175 26.9183C4.45262 28.2891 6.31129 29.0603 8.25 29.0625H21.75C23.6887 29.0603 25.5474 28.2891 26.9183 26.9183C28.2891 25.5474 29.0603 23.6887 29.0625 21.75V8.25C29.0603 6.31129 28.2891 4.45262 26.9183 3.08175C25.5474 1.71087 23.6887 0.939733 21.75 0.9375ZM27.9375 21.75C27.9356 23.3905 27.2831 24.9632 26.1232 26.1232C24.9632 27.2831 23.3905 27.9356 21.75 27.9375H8.25C6.60954 27.9356 5.03681 27.2831 3.87683 26.1232C2.71685 24.9632 2.06436 23.3905 2.0625 21.75V8.25C2.06436 6.60954 2.71685 5.03681 3.87683 3.87683C5.03681 2.71685 6.60954 2.06436 8.25 2.0625H21.75C23.3905 2.06436 24.9632 2.71685 26.1232 3.87683C27.2831 5.03681 27.9356 6.60954 27.9375 8.25V21.75ZM23.4375 7.6875C23.4375 7.91 23.3715 8.12751 23.2479 8.31252C23.1243 8.49752 22.9486 8.64172 22.743 8.72686C22.5375 8.81201 22.3113 8.83429 22.093 8.79088C21.8748 8.74748 21.6743 8.64033 21.517 8.483C21.3597 8.32566 21.2525 8.12521 21.2091 7.90698C21.1657 7.68875 21.188 7.46255 21.2731 7.25698C21.3583 7.05141 21.5025 6.87571 21.6875 6.7521C21.8725 6.62848 22.09 6.5625 22.3125 6.5625C22.6109 6.5625 22.897 6.68103 23.108 6.892C23.319 7.10298 23.4375 7.38913 23.4375 7.6875Z" fill="#2C2C2C"/>
</svg>
