<svg width="33" height="31" viewBox="0 0 33 31" fill="none" xmlns="http://www.w3.org/2000/svg">
<path d="M30.5938 7.89062H23.5469V7.25C23.5469 5.38105 22.8044 3.58865 21.4829 2.26711C20.1613 0.945562 18.3689 0.203125 16.5 0.203125C14.6311 0.203125 12.8387 0.945562 11.5171 2.26711C10.1956 3.58865 9.45312 5.38105 9.45312 7.25V7.89062H2.40625C1.89654 7.89062 1.4077 8.09311 1.04728 8.45353C0.686858 8.81395 0.484375 9.30279 0.484375 9.8125V29.0312C0.484375 29.541 0.686858 30.0298 1.04728 30.3902C1.4077 30.7506 1.89654 30.9531 2.40625 30.9531H30.5938C31.1035 30.9531 31.5923 30.7506 31.9527 30.3902C32.3131 30.0298 32.5156 29.541 32.5156 29.0312V9.8125C32.5156 9.30279 32.3131 8.81395 31.9527 8.45353C31.5923 8.09311 31.1035 7.89062 30.5938 7.89062ZM10.7344 7.25C10.7344 5.72086 11.3418 4.25435 12.4231 3.17309C13.5044 2.09182 14.9709 1.48438 16.5 1.48438C18.0291 1.48438 19.4956 2.09182 20.5769 3.17309C21.6582 4.25435 22.2656 5.72086 22.2656 7.25V7.89062H10.7344V7.25ZM31.2344 29.0312C31.2344 29.2012 31.1669 29.3641 31.0467 29.4842C30.9266 29.6044 30.7637 29.6719 30.5938 29.6719H2.40625C2.23635 29.6719 2.0734 29.6044 1.95326 29.4842C1.83312 29.3641 1.76562 29.2012 1.76562 29.0312V9.8125C1.76562 9.6426 1.83312 9.47965 1.95326 9.35951C2.0734 9.23937 2.23635 9.17188 2.40625 9.17188H9.45312V12.375C9.45312 12.5449 9.52062 12.7079 9.64076 12.828C9.7609 12.9481 9.92385 13.0156 10.0938 13.0156C10.2637 13.0156 10.4266 12.9481 10.5467 12.828C10.6669 12.7079 10.7344 12.5449 10.7344 12.375V9.17188H22.2656V12.375C22.2656 12.5449 22.3331 12.7079 22.4533 12.828C22.5734 12.9481 22.7363 13.0156 22.9062 13.0156C23.0762 13.0156 23.2391 12.9481 23.3592 12.828C23.4794 12.7079 23.5469 12.5449 23.5469 12.375V9.17188H30.5938C30.7637 9.17188 30.9266 9.23937 31.0467 9.35951C31.1669 9.47965 31.2344 9.6426 31.2344 9.8125V29.0312Z" fill="black"/>
</svg>
