<svg width="15" height="23" viewBox="0 0 15 23" fill="none" xmlns="http://www.w3.org/2000/svg">
<path d="M13.4096 23C13.0137 22.9991 12.6329 22.8337 12.3438 22.5371L7.85772 18.0239C7.76015 17.9247 7.63199 17.8695 7.49892 17.8695C7.36585 17.8695 7.23769 17.9247 7.14012 18.0239L2.65512 22.5371C2.42912 22.7653 2.14746 22.9164 1.84448 22.9721C1.5415 23.0277 1.2303 22.9855 0.948827 22.8506C0.667352 22.7156 0.427768 22.4938 0.259289 22.2121C0.0908106 21.9304 0.000718972 21.601 0 21.2642V2.89308C0 2.12579 0.277956 1.38992 0.772721 0.847364C1.26749 0.304806 1.93853 0 2.63824 0H12.3617C13.0614 0 13.7325 0.304806 14.2272 0.847364C14.722 1.38992 15 2.12579 15 2.89308V21.2607C15.0024 21.5989 14.9135 21.9304 14.7445 22.2133C14.5755 22.4963 14.3339 22.718 14.0502 22.8507C13.8484 22.9487 13.6303 22.9995 13.4096 23ZM7.49998 16.7104C7.89772 16.7094 8.28126 16.8726 8.57427 17.1675L13.0603 21.6808C13.1357 21.757 13.2298 21.8075 13.331 21.8261C13.4321 21.8447 13.5361 21.8305 13.63 21.7853C13.724 21.7401 13.8039 21.6659 13.8599 21.5717C13.916 21.4775 13.9458 21.3674 13.9457 21.2549V2.89308C13.9457 2.43271 13.7789 1.99119 13.4821 1.66565C13.1852 1.34012 12.7826 1.15723 12.3628 1.15723H2.63824C2.21841 1.15723 1.81579 1.34012 1.51893 1.66565C1.22207 1.99119 1.05529 2.43271 1.05529 2.89308V21.2607C1.0552 21.3732 1.08501 21.4833 1.14108 21.5775C1.19715 21.6717 1.27705 21.7459 1.371 21.7911C1.46495 21.8363 1.56887 21.8505 1.67005 21.8319C1.77123 21.8133 1.86528 21.7628 1.94069 21.6865L6.42674 17.1618C6.72028 16.8692 7.1033 16.7081 7.49998 16.7104Z" fill="#2C2C2C"/>
</svg>
