<svg width="28" height="28" viewBox="0 0 28 28" fill="none" xmlns="http://www.w3.org/2000/svg">
<path d="M26.0472 19.7995L19.4069 16.8281C19.1495 16.7167 18.8683 16.6712 18.5889 16.6958C18.3095 16.7203 18.0406 16.8142 17.8066 16.9688C17.7879 16.9806 17.77 16.9938 17.7531 17.0081L14.2656 19.9809C14.188 20.0283 14.0999 20.0557 14.0092 20.0609C13.9184 20.066 13.8278 20.0487 13.7453 20.0105C11.4616 18.908 9.09767 16.5623 7.99517 14.3053C7.95617 14.2235 7.93807 14.1332 7.94249 14.0427C7.9469 13.9521 7.9737 13.8641 8.02048 13.7864L11.0017 10.2413C11.0158 10.2244 11.0285 10.2061 11.0411 10.1878C11.1952 9.9541 11.2888 9.68571 11.3133 9.40684C11.3379 9.12796 11.2926 8.84736 11.1817 8.59031L8.2047 1.96125C8.06098 1.6255 7.81222 1.34544 7.49576 1.16313C7.17931 0.980812 6.81225 0.906081 6.4497 0.950157C4.68004 1.18348 3.05582 2.05303 1.88042 3.39638C0.705015 4.73973 0.0588157 6.46502 0.0625158 8.25C0.0625158 19.1063 8.89377 27.9375 19.75 27.9375C21.535 27.9412 23.2603 27.295 24.6036 26.1196C25.947 24.9442 26.8165 23.32 27.0499 21.5503C27.0936 21.1894 27.0197 20.824 26.839 20.5086C26.6583 20.1931 26.3806 19.9444 26.0472 19.7995ZM25.9375 21.4097C25.7389 22.9084 25.0013 24.2835 23.8625 25.2778C22.7238 26.2722 21.2618 26.8177 19.75 26.8125C9.51533 26.8125 1.18752 18.4847 1.18752 8.25C1.18228 6.73821 1.72784 5.27626 2.72219 4.13749C3.71655 2.99871 5.09162 2.26108 6.59033 2.0625C6.61281 2.0611 6.63535 2.0611 6.65783 2.0625C6.7688 2.06345 6.87701 2.0972 6.96885 2.1595C7.06068 2.22181 7.13203 2.30989 7.17392 2.41266L10.1425 9.04172C10.1772 9.12274 10.1923 9.21076 10.1867 9.2987C10.181 9.38663 10.1548 9.47202 10.1102 9.54797L7.13033 13.0917C7.11627 13.11 7.1022 13.1269 7.08955 13.1466C6.93079 13.3893 6.8373 13.6689 6.81808 13.9584C6.79887 14.2478 6.85459 14.5373 6.97986 14.7989C8.20189 17.3006 10.7219 19.8023 13.2517 21.0244C13.5151 21.1488 13.8063 21.203 14.0968 21.1815C14.3874 21.1601 14.6674 21.0638 14.9097 20.902L14.9617 20.8627L18.4535 17.8927C18.5281 17.847 18.6126 17.8198 18.6999 17.8132C18.7872 17.8066 18.8748 17.8208 18.9555 17.8547L25.5944 20.8303C25.7064 20.8769 25.8004 20.9586 25.8622 21.063C25.9241 21.1674 25.9505 21.289 25.9375 21.4097Z" fill="#2C2C2C"/>
</svg>
