<svg width="24" height="24" viewBox="0 0 24 24" fill="none" xmlns="http://www.w3.org/2000/svg">
<path d="M23.2498 23.25L17.821 17.8212M17.821 17.8212C18.7496 16.8926 19.4862 15.7902 19.9888 14.5769C20.4914 13.3636 20.75 12.0633 20.75 10.75C20.75 9.43675 20.4914 8.13635 19.9888 6.92307C19.4862 5.70978 18.7496 4.60736 17.821 3.67875C16.8924 2.75014 15.79 2.01353 14.5767 1.51097C13.3634 1.0084 12.063 0.749741 10.7498 0.749741C9.43652 0.749741 8.13612 1.0084 6.92284 1.51097C5.70955 2.01353 4.60713 2.75014 3.67852 3.67875C1.80311 5.55416 0.749512 8.09777 0.749512 10.75C0.749512 13.4022 1.80311 15.9458 3.67852 17.8212C5.55393 19.6967 8.09754 20.7503 10.7498 20.7503C13.402 20.7503 15.9456 19.6967 17.821 17.8212Z" stroke="#2C2C2C" stroke-linecap="round" stroke-linejoin="round"/>
</svg>
