<svg width="30" height="30" viewBox="0 0 30 30" fill="none" xmlns="http://www.w3.org/2000/svg">
<path d="M15 0.9375C12.2187 0.9375 9.49987 1.76225 7.1873 3.30746C4.87473 4.85267 3.07231 7.04893 2.00795 9.61852C0.943593 12.1881 0.665109 15.0156 1.20771 17.7435C1.75032 20.4713 3.08964 22.977 5.05632 24.9437C7.02299 26.9104 9.52869 28.2497 12.2565 28.7923C14.9844 29.3349 17.8119 29.0564 20.3815 27.9921C22.9511 26.9277 25.1473 25.1253 26.6925 22.8127C28.2378 20.5001 29.0625 17.7813 29.0625 15C29.0584 11.2716 27.5755 7.69718 24.9392 5.06083C22.3028 2.42449 18.7284 0.941594 15 0.9375ZM6.68485 24.9028C7.51947 23.4332 8.72869 22.211 10.1893 21.3607C11.65 20.5105 13.3099 20.0626 15 20.0626C16.6901 20.0626 18.35 20.5105 19.8107 21.3607C21.2713 22.211 22.4805 23.4332 23.3152 24.9028C20.9877 26.8627 18.0427 27.9375 15 27.9375C11.9573 27.9375 9.01232 26.8627 6.68485 24.9028ZM24.1645 24.1223C22.7671 21.7861 20.5269 20.0748 17.9053 19.3411C19.1242 18.6929 20.0913 17.6556 20.6527 16.3944C21.2142 15.1332 21.3377 13.7205 21.0036 12.381C20.6696 11.0414 19.8972 9.85212 18.8093 9.0022C17.7214 8.15228 16.3805 7.6906 15 7.6906C13.6195 7.6906 12.2786 8.15228 11.1907 9.0022C10.1028 9.85212 9.3304 11.0414 8.99636 12.381C8.66233 13.7205 8.78585 15.1332 9.34729 16.3944C9.90872 17.6556 10.8758 18.6929 12.0947 19.3411C9.47315 20.0748 7.23288 21.7861 5.83548 24.1223C4.03076 22.3112 2.80317 20.0058 2.30772 17.4975C1.81227 14.9891 2.07118 12.3902 3.05174 10.0289C4.03231 7.66754 5.69057 5.64971 7.81712 4.23017C9.94368 2.81062 12.4432 2.05302 15 2.05302C17.5568 2.05302 20.0563 2.81062 22.1829 4.23017C24.3094 5.64971 25.9677 7.66754 26.9483 10.0289C27.9288 12.3902 28.1877 14.9891 27.6923 17.4975C27.1968 20.0058 25.9693 22.3112 24.1645 24.1223ZM15 18.9375C13.9987 18.9375 13.02 18.6406 12.1874 18.0843C11.3549 17.528 10.706 16.7374 10.3229 15.8123C9.9397 14.8873 9.83944 13.8694 10.0348 12.8874C10.2301 11.9053 10.7123 11.0033 11.4203 10.2953C12.1283 9.58727 13.0303 9.10511 14.0124 8.90977C14.9944 8.71444 16.0123 8.81469 16.9373 9.19786C17.8624 9.58103 18.653 10.2299 19.2093 11.0624C19.7656 11.8949 20.0625 12.8737 20.0625 13.875C20.0625 15.2177 19.5291 16.5053 18.5797 17.4547C17.6303 18.4041 16.3427 18.9375 15 18.9375Z" fill="#2C2C2C"/>
</svg>
