<svg width="27" height="17" viewBox="0 0 27 17" fill="none" xmlns="http://www.w3.org/2000/svg">
<path d="M13.375 15.5C18.375 15.5 22.7 12.725 24.925 8.625C22.7 4.525 18.375 1.75 13.375 1.75C8.37505 1.75 4.05005 4.525 1.82505 8.625C4.05005 12.725 8.37505 15.5 13.375 15.5ZM13.375 0.5C19.075 0.5 24 3.8125 26.3251 8.625C24 13.4375 19.075 16.75 13.375 16.75C7.67505 16.75 2.75005 13.4375 0.425049 8.625C2.75005 3.8125 7.67505 0.5 13.375 0.5ZM13.375 3C16.5 3 19 5.5 19 8.625C19 11.75 16.5 14.25 13.375 14.25C10.25 14.25 7.75005 11.75 7.75005 8.625C7.75005 5.5 10.25 3 13.375 3ZM13.375 4.25C12.2147 4.25 11.1019 4.71094 10.2815 5.53141C9.46099 6.35188 9.00005 7.46468 9.00005 8.625C9.00005 9.78532 9.46099 10.8981 10.2815 11.7186C11.1019 12.5391 12.2147 13 13.375 13C14.5354 13 15.6482 12.5391 16.4686 11.7186C17.2891 10.8981 17.75 9.78532 17.75 8.625C17.75 7.46468 17.2891 6.35188 16.4686 5.53141C15.6482 4.71094 14.5354 4.25 13.375 4.25Z" fill="black"/>
</svg>
